<?xml version="1.0" encoding="UTF-8"?>
<svg width="63px" height="50px" viewBox="0 0 63 50" version="1.1" xmlns="http://www.w3.org/2000/svg" xmlns:xlink="http://www.w3.org/1999/xlink">
    <!-- Generator: Sketch 58 (84663) - https://sketch.com -->
    <title>car-alt</title>
    <desc>Created with Sketch.</desc>
    <g id="Page-1" stroke="none" stroke-width="1" fill="none" fill-rule="evenodd">
        <g id="car-alt" fill="#76B041" fill-rule="nonzero">
            <path d="M57.1263021,18.9140625 L52.1393229,6.52604167 C50.5520833,2.58333333 46.7278646,0 42.4765625,0 L20.0234375,0 C15.7734375,0 11.9479167,2.58333333 10.3606771,6.52604167 L5.37239583,18.9140625 C2.13151042,21.171875 0,24.9153646 0,29.1653646 L0,46.875 C0,48.6002604 1.39973958,50 3.125,50 L5.20833333,50 C6.93359375,50 8.33333333,48.6002604 8.33333333,46.875 L8.33333333,43.75 L54.1666667,43.75 L54.1666667,46.875 C54.1666667,48.6002604 55.5664062,50 57.2916667,50 L59.375,50 C61.1002604,50 62.5,48.6002604 62.5,46.875 L62.5,29.1666667 C62.5,24.9153646 60.3684896,21.171875 57.1263021,18.9140625 Z M16.1588542,8.86067708 C16.796875,7.27473958 18.3138021,6.25 20.0234375,6.25 L42.4765625,6.25 C44.1861979,6.25 45.703125,7.27473958 46.3411458,8.86067708 L49.4830729,16.6653646 L13.0169271,16.6653646 L16.1588542,8.86067708 Z M56.25,35.4166667 C56.25,36.5651042 55.3151042,37.5 54.1666667,37.5 L8.33333333,37.5 C7.18489583,37.5 6.25,36.5651042 6.25,35.4166667 L6.25,29.1666667 C6.25,25.7200521 9.05338542,22.9166667 12.5,22.9166667 L50,22.9166667 C53.4466146,22.9166667 56.25,25.7200521 56.25,29.1666667 L56.25,35.4166667 Z M14.5833333,26.0403646 C12.0833333,26.0403646 10.4166667,27.7018229 10.4166667,30.1953125 C10.4166667,32.6888021 12.0833333,34.3502604 14.5833333,34.3502604 C17.0833333,34.3502604 20.8333333,34.765625 20.8333333,32.2721354 C20.8333333,29.7799479 17.0833333,26.0403646 14.5833333,26.0403646 L14.5833333,26.0403646 Z M47.9166667,26.0403646 C45.4166667,26.0403646 41.6666667,29.7799479 41.6666667,32.2721354 C41.6666667,34.765625 45.4166667,34.3502604 47.9166667,34.3502604 C50.4166667,34.3502604 52.0833333,32.6888021 52.0833333,30.1953125 C52.0833333,27.703125 50.4166667,26.0403646 47.9166667,26.0403646 L47.9166667,26.0403646 Z" id="Shape"></path>
        </g>
    </g>
</svg>