<?xml version="1.0" encoding="UTF-8"?>
<svg width="50px" height="50px" viewBox="0 0 50 50" version="1.1" xmlns="http://www.w3.org/2000/svg" xmlns:xlink="http://www.w3.org/1999/xlink">
    <!-- Generator: Sketch 58 (84663) - https://sketch.com -->
    <title>clock</title>
    <desc>Created with Sketch.</desc>
    <g id="Page-1" stroke="none" stroke-width="1" fill="none" fill-rule="evenodd">
        <g id="clock" fill="#76B041" fill-rule="nonzero">
            <path d="M25,0 C11.1895161,0 0,11.1895161 0,25 C0,38.8104839 11.1895161,50 25,50 C38.8104839,50 50,38.8104839 50,25 C50,11.1895161 38.8104839,0 25,0 Z M25,45.1612903 C13.8608871,45.1612903 4.83870968,36.1391129 4.83870968,25 C4.83870968,13.8608871 13.8608871,4.83870968 25,4.83870968 C36.1391129,4.83870968 45.1612903,13.8608871 45.1612903,25 C45.1612903,36.1391129 36.1391129,45.1612903 25,45.1612903 Z M31.2298387,34.6370968 L22.671371,28.4173387 C22.358871,28.1854839 22.1774194,27.8225806 22.1774194,27.4395161 L22.1774194,10.8870968 C22.1774194,10.2217742 22.7217742,9.67741935 23.3870968,9.67741935 L26.6129032,9.67741935 C27.2782258,9.67741935 27.8225806,10.2217742 27.8225806,10.8870968 L27.8225806,25.171371 L34.5564516,30.0705645 C35.1008065,30.4637097 35.2116935,31.2197581 34.8185484,31.7641129 L32.9233871,34.375 C32.5302419,34.9092742 31.7741935,35.0302419 31.2298387,34.6370968 Z" id="Shape"></path>
        </g>
    </g>
</svg>