<?xml version="1.0" encoding="UTF-8"?>
<svg width="50px" height="50px" viewBox="0 0 50 50" version="1.1" xmlns="http://www.w3.org/2000/svg" xmlns:xlink="http://www.w3.org/1999/xlink">
    <!-- Generator: Sketch 58 (84663) - https://sketch.com -->
    <title>arrow-right</title>
    <desc>Created with Sketch.</desc>
    <g id="Page-1" stroke="none" stroke-width="1" fill="none" fill-rule="evenodd">
        <g id="arrow-right" fill="#76B041" fill-rule="nonzero">
            <path d="M24.3416023,0.978076571 L22.1318949,3.18778393 C21.6089045,3.71077441 21.6089045,4.55876454 22.1318949,5.08186663 L39.4454917,22.3953518 L1.33928422,22.3953518 C0.599664509,22.3953518 0,22.9950163 0,23.734636 L0,26.8596325 C0,27.5992522 0.599664509,28.1989167 1.33928422,28.1989167 L39.4454917,28.1989167 L22.1318949,45.5125135 C21.6089045,46.035504 21.6089045,46.8834941 22.1318949,47.4065962 L24.3416023,49.6163035 C24.8645928,50.139294 25.7125829,50.139294 26.235685,49.6163035 L49.6077571,26.2442314 C50.1307476,25.7212409 50.1307476,24.8732508 49.6077571,24.3501487 L26.2355734,0.978076571 C25.7125829,0.454974476 24.8645928,0.454974476 24.3416023,0.978076571 Z" id="Path"></path>
        </g>
    </g>
</svg>