<?xml version="1.0" encoding="UTF-8"?>
<svg width="84px" height="62px" viewBox="0 0 84 62" version="1.1" xmlns="http://www.w3.org/2000/svg" xmlns:xlink="http://www.w3.org/1999/xlink">
    <!-- Generator: Sketch 58 (84663) - https://sketch.com -->
    <title>Group</title>
    <desc>Created with Sketch.</desc>
    <g id="Page-1" stroke="none" stroke-width="1" fill="none" fill-rule="evenodd">
        <g id="Desktop-HD-Copy-5" transform="translate(-30.000000, -10.000000)" fill-rule="nonzero">
            <g id="Group" transform="translate(30.000000, 10.000000)">
                <g id="map" transform="translate(42.000000, 31.000000) rotate(-180.000000) translate(-42.000000, -31.000000) " fill="#76B041">
                    <path d="M0.10255814,8.39460317 L23.7674419,0.10005291 L23.7674419,52.6179894 L0.310930233,61.3521164 L0.10255814,8.39460317 Z M28.9767442,52.6032275 L28.9767442,0.131216931 L55.0232558,9.39513228 L55.0232558,61.8671429 L28.9767442,52.6032275 Z M60.2325581,61.8999471 L60.2325581,9.38201058 L83.6890698,0.646243386 L83.8974419,53.6037566 L60.2325581,61.8999471 Z" id="Shape"></path>
                </g>
                <g id="map-marker" transform="translate(33.000000, 19.000000)" fill="#FFFFFF">
                    <path d="M9,0 C4.02942188,0 0,4.02942384 0,9 C0,12.6287405 1.26421875,13.6420848 8.0750625,23.5157927 C8.52196875,24.1613555 9.47798438,24.1614493 9.92498438,23.5157927 C16.7357813,13.6420848 18,12.6287405 18,9 C18,4.02942384 13.9705781,0 9,0 Z M9,22.2155265 C2.47054688,12.7728812 1.5,12.0231621 1.5,9.00000073 C1.5,6.99665967 2.28014063,5.11326812 3.69670313,3.69670493 C5.11326563,2.28014174 6.99665625,1.50000073 9,1.50000073 C11.0033438,1.50000073 12.8867344,2.28014174 14.3032969,3.69670493 C15.7198594,5.11326812 16.5,6.99665967 16.5,9.00000073 C16.5,12.0229746 15.5300625,12.7720375 9,22.2155265 Z" id="Shape"></path>
                </g>
            </g>
        </g>
    </g>
</svg>