<?xml version="1.0" encoding="UTF-8"?>
<svg width="38px" height="32px" viewBox="0 0 38 32" version="1.1" xmlns="http://www.w3.org/2000/svg" xmlns:xlink="http://www.w3.org/1999/xlink">
    <!-- Generator: Sketch 58 (84663) - https://sketch.com -->
    <title>align-justify</title>
    <desc>Created with Sketch.</desc>
    <g id="Page-1" stroke="none" stroke-width="1" fill="none" fill-rule="evenodd">
        <g id="Desktop-HD-Copy-5" transform="translate(-1378.000000, -25.000000)" fill="#76B041" fill-rule="nonzero">
            <g id="align-justify" transform="translate(1378.000000, 25.000000)">
                <path d="M37.3214286,0 L0.678571429,0 C0.303806777,0 0,0.335786438 0,0.75 L0,2.25 C0,2.66421356 0.303806777,3 0.678571429,3 L37.3214286,3 C37.6961932,3 38,2.66421356 38,2.25 L38,0.75 C38,0.335786438 37.6961932,0 37.3214286,0 Z M37.3214286,29 L0.678571429,29 C0.303806777,29 0,29.3357864 0,29.75 L0,31.25 C0,31.6642136 0.303806777,32 0.678571429,32 L37.3214286,32 C37.6961932,32 38,31.6642136 38,31.25 L38,29.75 C38,29.3357864 37.6961932,29 37.3214286,29 Z M37.3214286,15 L0.678571429,15 C0.303806777,15 0,15.3357864 0,15.75 L0,17.25 C0,17.6642136 0.303806777,18 0.678571429,18 L37.3214286,18 C37.6961932,18 38,17.6642136 38,17.25 L38,15.75 C38,15.3357864 37.6961932,15 37.3214286,15 Z" id="Shape"></path>
            </g>
        </g>
    </g>
</svg>