<?xml version="1.0" encoding="UTF-8"?>
<svg width="145px" height="150px" viewBox="0 0 145 150" version="1.1" xmlns="http://www.w3.org/2000/svg" xmlns:xlink="http://www.w3.org/1999/xlink">
    <!-- Generator: Sketch 58 (84663) - https://sketch.com -->
    <title>cog</title>
    <desc>Created with Sketch.</desc>
    <g id="Page-1" stroke="none" stroke-width="1" fill="none" fill-rule="evenodd">
        <g id="cog" fill="#76B041" fill-rule="nonzero">
            <path d="M131.774964,69.2542736 L141.379792,63.6951969 C144.222963,62.0497319 145.601416,58.6925721 144.751119,55.5135375 C141.311322,42.6513302 134.543331,31.1545474 125.429257,22.006355 C123.112733,19.6813533 119.524835,19.2101836 116.68649,20.853834 L107.099157,26.4056527 C103.984721,24.1710194 100.661366,22.2446529 97.1758073,20.6536322 L97.1758073,9.53880534 C97.1754199,6.24702596 94.9669582,3.36710258 91.7941117,2.52085652 C79.1977105,-0.838117783 65.8185775,-0.842351657 53.2064915,2.5205541 C50.0336378,3.36672409 47.8241927,6.24666577 47.8241927,9.53850292 L47.8241927,20.6533298 C44.3386341,22.2443505 41.0152785,24.170717 37.9008431,26.4053503 L28.3135101,20.8535316 C25.4751649,19.2098812 21.8872672,19.6810509 19.5707432,22.0060526 C10.4566688,31.154245 3.68867836,42.6507254 0.248881431,55.5132351 C-0.601415616,58.6922697 0.777036852,62.0494295 3.62020818,63.6948945 L13.2250357,69.2542736 C12.8570465,73.0759367 12.8570465,76.9242523 13.2250357,80.7459153 L3.62020818,86.3049921 C0.777036852,87.950457 -0.601415616,91.3076168 0.248881431,94.4866515 C3.68867836,107.348859 10.4566688,118.845642 19.5707432,127.993834 C21.8872672,130.318836 25.4751649,130.790005 28.3135101,129.146355 L37.9008431,123.594536 C41.0152147,125.829183 44.3385816,127.755455 47.8241927,129.346254 L47.8241927,140.461081 C47.8245801,143.752861 50.0330418,146.632784 53.2058883,147.47903 C65.8022895,150.838004 79.1814225,150.842541 91.7935085,147.479332 C94.9663622,146.633162 97.1758073,143.753221 97.1758073,140.461384 L97.1758073,129.346557 C100.661298,127.755524 103.984643,125.829265 107.099157,123.594839 L116.68649,129.146657 C119.524835,130.790308 123.112733,130.319138 125.429257,127.994136 C134.543331,118.845944 141.311322,107.349161 144.751119,94.4869539 C145.601416,91.3079192 144.222963,87.9507595 141.379792,86.3052945 L131.774964,80.7462178 C132.142954,76.92061 132.142954,73.0798813 131.774964,69.2542736 Z M115.806781,87.8144157 L129,95.463573 C126.626806,101.902482 123.180505,107.888868 118.808593,113.166522 L105.612363,105.511315 C95.9824785,113.798079 94.5749087,114.608698 82.6793637,118.828756 L82.6793637,134.133422 C75.9418534,135.288859 69.0581466,135.288859 62.3206363,134.133422 L62.3206363,118.828756 C50.4265967,114.609303 49.0139085,113.795054 39.3876369,105.511315 L26.1914071,113.166522 C21.8195531,107.888828 18.3732574,101.902451 16,95.463573 L29.1932189,87.8144157 C26.8959447,75.3227177 26.8947403,73.6833317 29.1932189,61.1855843 L16,53.536427 C18.3635128,47.1152968 21.8139405,41.1203464 26.1914071,35.8331753 L39.3876369,43.4883821 C49.0175215,35.2016185 50.4253923,34.3906971 62.3206363,30.1709417 L62.3206363,14.8665776 C69.0581466,13.7111408 75.9418534,13.7111408 82.6793637,14.8665776 L82.6793637,30.1712442 C94.5734033,34.3906971 95.9860915,35.2049456 105.612363,43.4886845 L118.808593,35.8334778 C123.18051,41.1112402 126.626811,47.097727 129,53.5367294 L115.806781,61.1858868 C118.104356,73.6778872 118.10526,75.3166683 115.806781,87.8144157 Z M72,46 C56.0092188,46 43,59.0092187 43,75 C43,90.9907812 56.0092188,104 72,104 C87.9907812,104 101,90.9907812 101,75 C101,59.0092187 87.9907812,46 72,46 Z M72.5,89 C64.5044583,89 58,82.4955417 58,74.5 C58,66.5047604 64.5044583,60 72.5,60 C80.4955417,60 87,66.5047604 87,74.5 C87,82.4955417 80.4955417,89 72.5,89 Z" id="Shape"></path>
        </g>
    </g>
</svg>